<svg width="90" height="100" viewBox="0 0 90 100" fill="none" xmlns="http://www.w3.org/2000/svg">
<path d="M39.0214 80L70.7438 51.75L62.6026 44.5L38.881 65.625L27.0904 55.125L19.0896 62.25L39.0214 80ZM11.2292 100C8.14115 100 5.49761 99.0208 3.29857 97.0625C1.09952 95.1042 0 92.75 0 90V10C0 7.25 1.09952 4.89583 3.29857 2.9375C5.49761 0.979167 8.14115 0 11.2292 0H56.1458L89.8333 30V90C89.8333 92.75 88.7338 95.1042 86.5348 97.0625C84.3357 99.0208 81.6922 100 78.6042 100H11.2292ZM50.5312 35V10H11.2292V90H78.6042V35H50.5312Z" fill="black"/>
</svg>
